<?xml version="1.0" encoding="utf-8"?>
<!-- Generator: Adobe Illustrator 19.0.1, SVG Export Plug-In . SVG Version: 6.00 Build 0)  -->
<svg version="1.1" id="Layer_1" xmlns="http://www.w3.org/2000/svg" xmlns:xlink="http://www.w3.org/1999/xlink" x="0px" y="0px"
	 viewBox="-540 406.2 110.4 29.7" style="enable-background:new -540 406.2 110.4 29.7;" xml:space="preserve">
<style type="text/css">
	.st0{fill:#FABA00;}
	.st1{fill:#00ABE8;}
	.st2{fill:#FFFFFF;}
</style>
<g>
	<g>
		<path class="st0" d="M-534.1,424.7L-534.1,424.7L-534.1,424.7c0-0.3,0.2-0.5,0.4-0.5h0.7h7.4v-10.7c0-1.7-1.4-3.2-3.2-3.2h-8
			c-1.8,0-3.2,1.4-3.2,3.2v6.5c0,9,7.5,14.4,13.6,14.4h0.1l0,0c0.4,0,0.7-0.3,0.7-0.7v-2.5C-530,430.8-533.5,428.1-534.1,424.7z"/>
		<path class="st1" d="M-510,406.2h-10.1c-1.7,0-3.2,1.4-3.2,3.2v14.8h7.3h0.8c0.2,0,0.4,0.2,0.4,0.4l0,0c-0.6,3.4-4.1,6.1-8.5,6.5
			v3.6c0,0.6,0.5,1.1,1,1c10.3-0.8,15.4-8.3,15.4-16.9v-9.4C-506.9,407.6-508.3,406.2-510,406.2z"/>
	</g>
	<g>
		<polygon class="st2" points="-456.3,413.3 -456.3,423.7 -464.8,413.3 -464.8,413.3 -467.2,413.3 -467.2,429.4 -464,429.4 
			-464,419.2 -455.6,429.4 -453.1,429.4 -453.1,413.3 		"/>
		<rect x="-432.8" y="413.3" class="st2" width="3.2" height="16.1"/>
		<path class="st2" d="M-443.4,413.3h-6.2v16.1h6.2c4.4,0,8-3.6,8-8C-435.3,416.9-438.9,413.3-443.4,413.3z M-443.4,426.2h-3v-9.7h3
			c2.7,0,4.8,2.2,4.8,4.8C-438.5,424.1-440.7,426.2-443.4,426.2z"/>
		<path class="st2" d="M-490.8,413.3v10.2l0,0c0,1.7-1.4,3.1-3.1,3.1c-1.5,0-2.7-1-3-2.4h-3.3c0.4,3.1,3,5.6,6.3,5.6
			c3.5,0,6.3-2.8,6.3-6.3v-10.2H-490.8z"/>
		<path class="st2" d="M-476.1,413.3h-3.2l-6.9,16.1h3.4l1.4-3.2h7.6l1.4,3.2h3.4L-476.1,413.3z M-480.2,423.4l2.5-5.9l2.5,5.9
			H-480.2z"/>
	</g>
</g>
</svg>
