<?xml version="1.0" encoding="UTF-8" standalone="no"?>
<svg width="100px" height="50px" viewBox="0 0 100 50" version="1.1" xmlns="http://www.w3.org/2000/svg" xmlns:xlink="http://www.w3.org/1999/xlink">
    <!-- Generator: Sketch 39.1 (31720) - http://www.bohemiancoding.com/sketch -->
    <title>Artboard</title>
    <desc>Created with Sketch.</desc>
    <defs></defs>
    <g id="Page-1" stroke="none" stroke-width="1" fill="none" fill-rule="evenodd">
        <g id="Artboard" fill="#11476F">
            <path d="M87.0089406,26.3641884 C87.0595124,33.0396709 92.8247018,35.2142598 92.9258455,35.2648317 C92.8752736,35.4165472 92.0155524,38.4002855 89.8915353,41.5357394 C88.0709492,44.2160467 86.1492194,46.8963541 83.165481,46.9469259 C80.2323145,46.9974977 79.2714496,45.1769116 75.8831366,45.1769116 C72.4948235,45.1769116 71.4833868,46.8457822 68.651364,46.9974977 C65.7687693,47.0986414 63.5436085,44.114903 61.7230224,41.4345957 C57.9301346,35.9728374 55.04754,26.0101856 58.8909995,19.2335595 C60.8127293,15.8958183 64.2516142,13.7718012 67.9939301,13.7212293 C70.8259529,13.6706575 73.5568321,15.6429591 75.2762745,15.6429591 C76.995717,15.6429591 80.2828864,13.2660828 83.7217712,13.6200857 C85.1377827,13.6706575 89.1835296,14.1763759 91.7626932,17.9692636 C91.509834,18.1209791 86.9583688,20.8012864 87.0089406,26.3641884 M81.4460386,10.0294853 C82.9631937,8.15832732 84.0252023,5.57916366 83.7217712,3 C81.4966104,3.10114367 78.8163031,4.46658326 77.2485762,6.33774121 C75.8325647,8.00661181 74.5682688,10.6363473 74.9222717,13.1649391 C77.4002917,13.3166546 79.9288835,11.9006432 81.4460386,10.0294853" id="Shape"></path>
            <path d="M47,3 L23.1603666,6.47715922 L23.1603666,24.117984 L47,23.9163803 L47,3 Z M3,9.24920962 L3,24.2691867 L20.9931271,24.117984 L20.9931271,6.78006873 L3,9.24920962 Z M3,41.0526919 L20.9931271,43.5223368 L20.9931271,26.1340206 L3,26.0327148 L3,41.0526919 Z M23.1603666,43.7743414 L47,47.1512027 L47,26.3356243 L23.1099656,26.2852234 L23.1603666,43.7743414 Z" id="Page-1"></path>
        </g>
    </g>
</svg>